<?xml version="1.0" encoding="UTF-8"?>
<svg id="Layer_2" data-name="Layer 2" xmlns="http://www.w3.org/2000/svg" viewBox="0 0 135.31 100.64">
  <defs>
    <style>
      .cls-1 {
        fill: #fff;
      }

      .cls-2 {
        fill: #2c4896;
      }
    </style>
  </defs>
  <g id="Capa_3" data-name="Capa 3">
    <g>
      <path class="cls-2" d="M135.3,43.38c-1.28.45-80.63,57.26-80.63,57.26L3.3,53.3,0,8.29l.05-.12.24-.05s.9-.08,1.35-.12c.54-.05,1.08-.1,1.62-.15.24-.02.49-.05.73-.07.57-.05,1.14-.11,1.71-.16.5-.05,1-.08,1.5-.13.5-.05,1-.1,1.5-.15.49-.05.98-.08,1.47-.13.5-.05,1-.1,1.5-.15.24-.02.49-.05.73-.07.78-.07,1.57-.15,2.35-.22.7-.06,1.41-.12,2.11-.19.69-.06,1.39-.14,2.08-.2.49-.05.98-.08,1.47-.13.5-.05,1-.1,1.5-.15.46-.04.92-.08,1.38-.13.55-.05,1.1-.11,1.65-.16.49-.04.98-.08,1.47-.13.5-.05,1-.1,1.5-.14.24-.02.49-.05.73-.07.18-.02.37-.04.55-.05.07,0,.14,0,.23,0,.03.1.07.19.1.29.59,1.98,1.18,3.96,1.77,5.94.03.11.07.22.1.31.12.07.22.03.32.03.09,0,.18,0,.28-.02.52-.05,1.04-.1,1.56-.15.48-.05.96-.1,1.44-.15.46-.05.92-.09,1.38-.13.5-.05,1-.1,1.5-.15.47-.05.94-.09,1.41-.13.49-.05.98-.1,1.47-.15.46-.05.92-.09,1.38-.13.51-.05,1.02-.1,1.53-.15.16-.02.32-.03.5-.01.29.83.54,1.66.83,2.49.17.06.33.02.49,0,.5-.05,1-.1,1.5-.16.44-.05.87-.1,1.31-.15.42-.05.84-.09,1.25-.13.47-.05.94-.1,1.4-.15.42-.04.83-.09,1.25-.13.47-.05.94-.1,1.4-.15.43-.05.86-.09,1.28-.13.46-.05.92-.1,1.37-.15.44-.05.88-.09,1.31-.14.45-.05.9-.1,1.34-.15.26-.03.53-.05.79-.08.08,0,.16-.02.24-.03.11-.01.2-.05.26-.14.06-.07.12-.14.19-.21,2.54-2.83,5.09-5.65,7.63-8.48.03-.04.07-.07.1-.12.09-.13.21-.17.37-.18.56-.04,1.12-.1,1.68-.15.52-.04,1.04-.08,1.56-.13.53-.05,1.06-.1,1.59-.14.27-.02.53-.05.8-.07.82-.07,1.63-.14,2.45-.21.53-.05,1.06-.08,1.59-.13.52-.05,1.04-.1,1.56-.15.23-.02.47-.04.7-.06.74-.06,1.49-.12,2.23-.18.53-.05,1.06-.1,1.58-.14.09.07.09.17.1.26.07.52.13,1.03.19,1.55.01.11.02.23.09.34.23-.02.47-.04.7-.06.5-.05,1-.1,1.5-.15.48-.05.96-.1,1.44-.15.46-.05.92-.09,1.38-.13.48-.05.96-.1,1.44-.14.46-.05.92-.09,1.38-.14.49-.05.98-.1,1.47-.15.46-.05.92-.09,1.38-.13.49-.05.98-.1,1.47-.15.46-.05.92-.09,1.38-.13.49-.05.98-.1,1.47-.15.45-.04.9-.09,1.34-.13.5-.05,1-.1,1.5-.15.45-.04.9-.09,1.35-.13.5-.05,1-.1,1.5-.15.45-.04.9-.09,1.35-.13.5-.05,1-.1,1.5-.15.44-.04.88-.09,1.31-.13.51-.05,1.02-.1,1.53-.15.46-.04.92-.09,1.38-.13.22-.02.45-.04.67-.06.06,0,.12,0,.19,0,.02.07.05.13.06.19.06.53.12,1.05.18,1.58.07.59.13,1.18.2,1.77.06.56.13,1.12.19,1.67.06.57.13,1.14.19,1.7.07.61.14,1.22.21,1.83.08.73.17,1.47.25,2.2.07.57.13,1.14.19,1.7.02.16.04.33.07.51.07,0,.13.02.19.02.72-.07,1.45-.13,2.17-.2.67-.07,1.34-.14,2.02-.2.48-.05.96-.08,1.44-.13.48-.05.96-.1,1.44-.14.23-.02.47-.05.7-.07.38-.04.75-.07,1.13-.11.04,0,.08,0,.11,0,.1.09.12.21.16.31,1.15,3.08,2.31,6.16,3.46,9.24,2.26,6.02,4.51,12.05,6.77,18.07.32.85.63,1.71.95,2.57,0,.03.04.04.06.06v.19ZM65.84,32.23c3.54,4.57,7.09,9.14,10.64,13.7.13,0,.23.01.33,0,.67-.07,1.34-.14,2.02-.2.77-.08,1.55-.15,2.32-.22.78-.08,1.57-.15,2.35-.23.83-.08,1.65-.16,2.48-.24.06,0,.11-.03.18-.05,0-.09,0-.18-.02-.26-.04-.41-.09-.83-.14-1.24-.06-.59-.13-1.18-.19-1.77-.07-.62-.14-1.24-.21-1.86-.06-.57-.12-1.14-.19-1.7-.07-.6-.14-1.2-.2-1.8-.06-.59-.13-1.18-.19-1.77-.07-.62-.14-1.24-.21-1.86-.06-.57-.12-1.14-.19-1.7-.07-.62-.14-1.24-.21-1.86-.06-.57-.12-1.14-.19-1.7-.07-.59-.13-1.18-.2-1.77-.07-.63-.14-1.26-.21-1.89-.06-.59-.13-1.18-.19-1.77-.06-.57-.12-1.14-.19-1.7-.07-.61-.14-1.22-.2-1.83-.06-.58-.13-1.16-.19-1.74-.07-.61-.14-1.22-.2-1.83-.06-.58-.13-1.16-.19-1.74-.07-.59-.13-1.18-.2-1.77-.06-.59-.12-1.18-.19-1.77-.08-.76-.17-1.53-.26-2.29-.08-.73-.16-1.47-.24-2.2,0-.07-.03-.14-.05-.2-.12-.05-.24-.02-.35-.01-.13.01-.26.03-.4.04-.46.04-.92.09-1.38.13-.5.05-1,.1-1.5.15-.47.05-.94.09-1.41.13-.48.05-.96.1-1.44.14-.48.05-.96.09-1.44.13-.53.05-1.06.1-1.59.16-.2.02-.4.03-.59.08-.06.11-.03.2-.01.29.06.58.13,1.16.19,1.74.06.59.13,1.18.19,1.77.07.59.13,1.18.2,1.77.07.63.14,1.26.21,1.89.06.59.13,1.18.19,1.77.06.57.12,1.14.19,1.7.07.59.13,1.18.2,1.77.06.59.13,1.18.19,1.77.08.75.17,1.51.25,2.26.07.64.14,1.28.21,1.92.02.18.05.37.03.56-.21.02-.4.06-.59.07-.38.02-.3.05-.55-.23-2.95-3.25-5.9-6.5-8.86-9.75-.07-.08-.14-.15-.21-.23-.07-.08-.14-.11-.24-.09-.54.06-1.08.11-1.62.16-.47.05-.94.1-1.41.14-.46.05-.92.09-1.38.14-.47.05-.94.1-1.41.15-.46.05-.92.09-1.38.13-.46.05-.92.1-1.37.15-.6.06-1.2.12-1.8.18-.03,0-.05.03-.1.05.01.16.02.32.04.49.03.28.06.56.09.84.06.57.13,1.14.19,1.7.07.59.13,1.18.2,1.77.06.58.13,1.16.19,1.74.07.61.14,1.22.2,1.83.06.57.13,1.14.19,1.7.07.59.13,1.18.2,1.77.06.58.13,1.16.19,1.74.07.61.14,1.22.2,1.83.06.57.13,1.14.19,1.7.07.59.13,1.18.2,1.77.06.58.13,1.16.19,1.74.07.59.13,1.18.2,1.77.07.62.14,1.24.21,1.86.06.58.13,1.16.19,1.74.06.57.13,1.14.19,1.7.07.59.13,1.18.2,1.77.06.58.13,1.16.19,1.74.07.59.13,1.18.2,1.77.06.56.12,1.12.18,1.67,0,.07.04.13.07.21,3.34-.31,6.66-.63,9.98-.95.03,0,.05-.03.08-.04.05-.09.02-.19.01-.28-.03-.27-.06-.54-.09-.81-.06-.57-.12-1.14-.19-1.7-.07-.59-.13-1.18-.2-1.77-.06-.59-.12-1.18-.19-1.77-.08-.75-.17-1.51-.26-2.26-.1-.93-.2-1.86-.3-2.79-.1-.93-.21-1.86-.31-2.79-.11-1-.22-2-.33-3.01-.01-.12-.04-.24.01-.38.3,0,.59-.1.9-.06ZM3.75,11.23c0,.09,0,.15,0,.21.05.47.1.93.15,1.39.06.57.12,1.14.19,1.7.07.6.13,1.2.2,1.8.06.59.13,1.18.19,1.77.07.62.14,1.24.2,1.86.06.58.13,1.16.19,1.74.07.61.13,1.22.2,1.83.06.59.13,1.18.19,1.77.07.61.13,1.22.2,1.83.06.59.13,1.18.19,1.77.07.6.13,1.2.2,1.8.06.59.13,1.18.19,1.77.07.62.14,1.24.2,1.86.07.6.13,1.2.2,1.8.06.59.13,1.18.19,1.77.06.59.13,1.18.19,1.77.07.6.13,1.2.2,1.8.06.59.13,1.18.19,1.77.06.59.13,1.18.2,1.77.08.76.16,1.53.24,2.29.08.76.17,1.53.26,2.29.1.9.19,1.8.29,2.7,0,.06.03.12.05.19.09,0,.17,0,.25,0,.24-.02.49-.05.73-.07.5-.05,1-.1,1.5-.15.47-.05.94-.09,1.41-.13.51-.05,1.02-.1,1.53-.15.46-.04.92-.09,1.38-.13.51-.05,1.02-.1,1.53-.15.46-.04.92-.08,1.38-.13.13-.01.26-.04.39-.06,0-.06.02-.1.01-.14-.06-.55-.11-1.1-.17-1.64-.07-.63-.13-1.26-.2-1.89-.06-.61-.12-1.22-.19-1.83-.07-.65-.14-1.3-.21-1.95-.04-.42-.09-.85-.13-1.27-.07-.63-.13-1.26-.2-1.89-.06-.61-.12-1.22-.19-1.83-.06-.62-.13-1.24-.2-1.86-.07-.66-.14-1.32-.21-1.98-.02-.17-.05-.35-.01-.53.05-.01.09-.02.13-.03.37-.04.73-.07,1.1-.11.3-.03.59-.05.89-.08.51-.05,1.02-.1,1.53-.14.51-.05,1.02-.08,1.53-.13.71-.06,1.43-.14,2.14-.2.71-.06,1.43-.12,2.14-.18.1,0,.21,0,.28-.09,0-.05,0-.09,0-.13-.27-2.42-.54-4.83-.81-7.25-.01-.1-.03-.2-.05-.31,0-.01,0-.02-.01-.03,0,0-.01-.01-.04-.04-.03,0-.08,0-.13,0-.57.05-1.14.09-1.71.14-.21.02-.43.04-.64.06-.51.05-1.02.1-1.53.14-.51.05-1.02.08-1.53.13-.51.05-1.02.1-1.53.15-.6.06-1.2.11-1.8.16-.21.02-.43.04-.64.06-.07,0-.14,0-.22,0-.02-.09-.03-.16-.04-.23-.03-.26-.05-.52-.08-.78-.07-.62-.13-1.24-.2-1.86-.06-.61-.12-1.22-.19-1.83-.06-.6-.13-1.2-.19-1.8,0-.05.01-.1.02-.15.22-.02.42-.05.63-.07.45-.04.9-.09,1.34-.13.49-.05.98-.1,1.47-.15.46-.05.92-.09,1.38-.13.48-.05.96-.1,1.44-.15.46-.05.92-.09,1.38-.13.47-.05.94-.1,1.4-.15.47-.05.94-.09,1.41-.13.53-.05,1.06-.11,1.59-.16.15-.02.3-.02.45-.1-.01-.15-.02-.3-.03-.44,0-.1-.02-.21-.03-.31-.06-.59-.13-1.18-.19-1.77-.07-.61-.13-1.22-.2-1.83-.06-.59-.13-1.18-.19-1.77-.07-.6-.13-1.2-.2-1.8-.06-.56-.12-1.12-.18-1.67,0-.05-.03-.09-.06-.15-.07,0-.13,0-.19,0-.19.02-.39.04-.58.05-.5.04-1,.09-1.5.13-.56.05-1.12.1-1.68.16-.25.02-.51.05-.76.07-.52.05-1.04.1-1.56.15-.48.04-.96.09-1.44.13-.53.05-1.06.1-1.59.15-.47.04-.94.09-1.41.13-.5.05-1,.1-1.5.15-.49.05-.98.08-1.47.13-.49.05-.98.1-1.47.15-.5.05-1,.08-1.5.13-.78.07-1.57.15-2.35.22-.23.02-.47.04-.7.07-.5.05-1,.1-1.5.15-.46.04-.92.08-1.38.12-.04,0-.08.02-.14.04ZM103.31,14.97c.28-.03.51-.05.75-.07.45-.04.9-.09,1.34-.13.48-.05.96-.1,1.44-.15.47-.05.94-.09,1.41-.14.47-.05.94-.1,1.41-.14.46-.05.92-.08,1.38-.13.1-.01.2-.04.3-.06,0-.06.02-.1.01-.14-.34-3.16-.69-6.32-1.03-9.48,0-.04-.03-.08-.05-.12-.12-.03-.25-.01-.37,0-.59.05-1.18.11-1.77.17-.76.07-1.53.15-2.29.22-.24.02-.49.05-.73.07-.49.05-.98.1-1.47.14-.47.04-.94.09-1.41.13-.52.05-1.04.1-1.56.15-.46.04-.92.09-1.38.13-.51.05-1.02.1-1.53.15-.47.05-.94.09-1.41.13-.48.05-.96.1-1.44.14-.48.05-.96.09-1.44.13-.53.05-1.06.1-1.59.15-.45.04-.9.08-1.35.13-.48.05-.96.1-1.44.14-.48.05-.96.09-1.44.13-.55.05-1.1.1-1.65.16-.2.02-.41.02-.61.09,0,.06-.01.11,0,.16.09.86.18,1.72.28,2.57.12,1.11.25,2.21.37,3.32.12,1.12.24,2.23.36,3.35.01.12.01.25.1.37.63-.06,1.26-.11,1.89-.17.62-.06,1.24-.12,1.87-.17.63-.05,1.26-.14,1.91-.16.02.16.04.3.06.45.05.42.09.85.13,1.27.07.63.14,1.26.21,1.89.06.59.13,1.18.19,1.77.07.62.13,1.24.2,1.86.06.59.12,1.18.19,1.77.07.62.14,1.24.2,1.86.06.6.13,1.2.19,1.8.07.61.13,1.22.2,1.83.06.6.13,1.2.19,1.8.07.62.13,1.24.2,1.86.07.61.13,1.22.2,1.83.06.6.13,1.2.19,1.8.06.6.13,1.2.19,1.8.07.62.13,1.24.2,1.86.06.59.13,1.18.19,1.77.06.6.13,1.2.2,1.8.06.59.12,1.18.19,1.77,0,.09.04.18.06.26.05,0,.08.02.11.02.38-.03.76-.06,1.13-.1.49-.05.98-.1,1.47-.14.48-.05.96-.09,1.44-.13.49-.05.98-.1,1.47-.15.48-.05.96-.08,1.44-.13.67-.07,1.34-.14,2.02-.2.61-.06,1.22-.12,1.83-.18.06,0,.11-.03.19-.05-.06-.56-.11-1.11-.17-1.65-.06-.54-.11-1.07-.17-1.61-.06-.55-.12-1.1-.18-1.64-.06-.55-.12-1.09-.18-1.64-.06-.54-.12-1.07-.17-1.61-.06-.55-.12-1.1-.17-1.64-.06-.55-.12-1.1-.17-1.64-.06-.54-.11-1.07-.17-1.61-.06-.55-.12-1.1-.17-1.64-.06-.55-.12-1.1-.18-1.64-.06-.55-.12-1.09-.18-1.64-.06-.54-.12-1.07-.17-1.61-.06-.55-.12-1.1-.17-1.64-.06-.55-.12-1.1-.17-1.64-.06-.54-.11-1.07-.17-1.61-.06-.55-.12-1.1-.18-1.64-.06-.55-.12-1.1-.18-1.64-.06-.54-.12-1.07-.18-1.61-.05-.55-.14-1.09-.16-1.66ZM53.05,48.18c-3.75-11.21-7.49-22.38-11.23-33.56-.02-.05-.05-.09-.06-.12-.04-.01-.06-.02-.07-.02-3.08.29-6.16.58-9.23.87-.04,0-.08.02-.12.03-.02.06-.04.12-.05.18-.24,1.21-.47,2.43-.71,3.64-.23,1.18-.46,2.37-.69,3.55-.22,1.15-.45,2.3-.67,3.46-.25,1.28-.5,2.57-.75,3.85-.27,1.39-.54,2.77-.81,4.16-.23,1.17-.45,2.35-.68,3.52-.25,1.31-.51,2.61-.76,3.91-.25,1.27-.5,2.55-.75,3.82-.23,1.17-.46,2.35-.68,3.52-.23,1.17-.46,2.34-.69,3.52-.07.36-.14.71-.21,1.07-.02.09-.06.18.04.28,2.77-.26,5.55-.52,8.33-.79.11-.01.22-.04.34-.06.12-.67.2-1.34.3-2.01.1-.67.19-1.34.29-2,.1-.66.2-1.32.29-1.97.1-.67.18-1.34.29-2.01.1-.66.18-1.33.31-2,.08-.01.14-.03.2-.04,2.38-.26,4.76-.51,7.14-.77.04,0,.08,0,.12,0,.01,0,.02,0,.03,0,0,0,.02.01.04.03.03.08.06.18.09.28.43,1.51.87,3.01,1.3,4.52.17.58.33,1.16.5,1.73.07.23.07.23.29.21.52-.04,1.04-.09,1.56-.14.23-.02.47-.05.7-.07.52-.05,1.04-.1,1.56-.15.47-.04.94-.09,1.41-.13.52-.05,1.04-.1,1.56-.15.44-.04.88-.08,1.31-.12.04,0,.07-.03.15-.06ZM130.72,40.77c0-.15-.05-.25-.09-.36-2.54-6.78-5.08-13.56-7.63-20.34-.39-1.05-.79-2.1-1.18-3.15-.04-.1-.05-.22-.16-.29-.08,0-.17,0-.25,0-.44.04-.88.08-1.31.13-.48.05-.96.1-1.44.15-.48.05-.96.08-1.44.13-.67.07-1.34.14-2.02.2-.77.08-1.55.15-2.32.22-.67.06-1.35.12-2.02.18-.09,0-.19,0-.27.11,0,.17,0,.35,0,.54,0,1.92,0,3.85-.01,5.77,0,2.62-.02,5.24-.02,7.86,0,2.69-.02,5.39-.03,8.08,0,.79,0,1.58-.01,2.37,0,.1-.03.21.06.3.08,0,.16,0,.24,0,.45-.04.9-.08,1.35-.13.52-.05,1.04-.1,1.56-.15.46-.04.92-.09,1.38-.13.52-.05,1.04-.1,1.56-.15.22-.02.44-.04.67-.09,0-.06.02-.11.02-.16-.03-.71-.06-1.41-.09-2.12-.02-.41-.04-.81-.06-1.22-.02-.48-.05-.96-.07-1.43,0-.07.02-.14.03-.22,1.52-.17,3.02-.34,4.53-.51.08,0,.16,0,.26,0,.05.12.09.24.13.35.5,1.45,1.01,2.9,1.51,4.35.04.12.09.23.13.33.04.02.06.03.08.03,2.18-.2,4.36-.41,6.54-.61.12-.01.24-.04.38-.06Z"/>
      <path class="cls-2" d="M118.99,0c.07.02.13.06.2.07,1.04.15,2.06.98,2.24,2.36.06.45.03.9-.12,1.32-.34.99-1.05,1.56-2.04,1.79-.56.13-1.12.09-1.66-.13-.92-.38-1.46-1.07-1.65-2.05-.09-.43-.08-.87.04-1.3.28-1.01.93-1.63,1.91-1.92.13-.04.26-.05.39-.07.07-.01.13-.04.2-.07.16,0,.33,0,.49,0ZM118.6,5.11c.23-.03.47-.04.69-.1.82-.23,1.36-.75,1.55-1.6.13-.6.06-1.2-.23-1.75-.28-.53-.71-.88-1.28-1.03-.46-.13-.93-.12-1.39.04-.74.24-1.21.75-1.41,1.51-.08.31-.09.63-.05.96.13,1.08.9,1.96,2.12,1.99Z"/>
      <path class="cls-1" d="M65.84,32.23c-.32-.04-.61.05-.9.06-.05.13-.03.26-.01.38.11,1,.22,2,.33,3.01.1.93.21,1.86.31,2.79.1.93.2,1.86.3,2.79.08.75.17,1.51.26,2.26.07.59.12,1.18.19,1.77.06.59.13,1.18.2,1.77.06.57.12,1.14.19,1.7.03.27.06.54.09.81.01.09.04.18-.01.28-.02.01-.05.04-.08.04-3.32.32-6.64.64-9.98.95-.03-.08-.06-.14-.07-.21-.06-.56-.12-1.12-.18-1.67-.07-.59-.13-1.18-.2-1.77-.06-.58-.13-1.16-.19-1.74-.07-.59-.13-1.18-.2-1.77-.06-.57-.13-1.14-.19-1.7-.06-.58-.13-1.16-.19-1.74-.07-.62-.14-1.24-.21-1.86-.07-.59-.14-1.18-.2-1.77-.06-.58-.13-1.16-.19-1.74-.07-.59-.13-1.18-.2-1.77-.06-.57-.13-1.14-.19-1.7-.07-.61-.14-1.22-.2-1.83-.06-.58-.13-1.16-.19-1.74-.07-.59-.13-1.18-.2-1.77-.06-.57-.13-1.14-.19-1.7-.07-.61-.14-1.22-.2-1.83-.06-.58-.13-1.16-.19-1.74-.07-.59-.13-1.18-.2-1.77-.06-.57-.13-1.14-.19-1.7-.03-.28-.06-.56-.09-.84-.02-.16-.03-.33-.04-.49.05-.03.07-.05.1-.05.6-.06,1.2-.12,1.8-.18.46-.05.92-.1,1.37-.15.46-.05.92-.09,1.38-.13.47-.05.94-.1,1.41-.15.46-.05.92-.09,1.38-.14.47-.05.94-.1,1.41-.14.54-.05,1.08-.1,1.62-.16.1-.01.18.02.24.09.07.08.14.15.21.23,2.95,3.25,5.9,6.5,8.86,9.75.25.28.17.25.55.23.19,0,.38-.04.59-.07.02-.2-.02-.38-.03-.56-.07-.64-.14-1.28-.21-1.92-.08-.75-.17-1.51-.25-2.26-.07-.59-.13-1.18-.19-1.77-.06-.59-.13-1.18-.2-1.77-.06-.57-.13-1.14-.19-1.7-.06-.59-.13-1.18-.19-1.77-.07-.63-.14-1.26-.21-1.89-.07-.59-.13-1.18-.2-1.77-.07-.59-.13-1.18-.19-1.77-.06-.58-.13-1.16-.19-1.74-.01-.09-.04-.18.01-.29.18-.05.39-.06.59-.08.53-.05,1.06-.11,1.59-.16.48-.05.96-.09,1.44-.13.48-.05.96-.1,1.44-.14.47-.05.94-.09,1.41-.13.5-.05,1-.1,1.5-.15.46-.04.92-.09,1.38-.13.13-.01.26-.03.4-.04.11,0,.22-.04.35.01.02.06.04.13.05.2.08.73.16,1.47.24,2.2.08.76.17,1.53.26,2.29.07.59.13,1.18.19,1.77.06.59.13,1.18.2,1.77.06.58.13,1.16.19,1.74.07.61.14,1.22.2,1.83.06.58.13,1.16.19,1.74.07.61.14,1.22.2,1.83.06.57.13,1.14.19,1.7.06.59.13,1.18.19,1.77.07.63.14,1.26.21,1.89.07.59.13,1.18.2,1.77.06.57.12,1.14.19,1.7.07.62.14,1.24.21,1.86.06.57.12,1.14.19,1.7.07.62.14,1.24.21,1.86.06.59.13,1.18.19,1.77.07.6.14,1.2.2,1.8.06.57.12,1.14.19,1.7.07.62.14,1.24.21,1.86.06.59.13,1.18.19,1.77.05.41.09.83.14,1.24,0,.08.01.16.02.26-.07.02-.13.05-.18.05-.83.08-1.65.16-2.48.24-.78.07-1.57.15-2.35.23-.77.07-1.55.15-2.32.22-.67.07-1.34.14-2.02.2-.1,0-.2,0-.33,0-3.54-4.56-7.09-9.14-10.64-13.7Z"/>
      <path class="cls-1" d="M3.75,11.23c.07-.02.1-.04.14-.04.46-.04.92-.08,1.38-.12.5-.05,1-.1,1.5-.15.23-.02.47-.04.7-.07.78-.07,1.57-.15,2.35-.22.5-.05,1-.08,1.5-.13.49-.05.98-.1,1.47-.15.49-.05.98-.08,1.47-.13.5-.05,1-.1,1.5-.15.47-.04.94-.09,1.41-.13.53-.05,1.06-.1,1.59-.15.48-.04.96-.09,1.44-.13.52-.05,1.04-.1,1.56-.15.25-.02.51-.05.76-.07.56-.05,1.12-.11,1.68-.16.5-.05,1-.09,1.5-.13.19-.02.39-.04.58-.05.06,0,.12,0,.19,0,.02.06.05.1.06.15.06.56.12,1.12.18,1.67.07.6.13,1.2.2,1.8.06.59.13,1.18.19,1.77.07.61.13,1.22.2,1.83.06.59.13,1.18.19,1.77.01.1.03.21.03.31.01.14.02.29.03.44-.15.07-.3.08-.45.1-.53.05-1.06.11-1.59.16-.47.05-.94.09-1.41.13-.47.05-.94.1-1.4.15-.46.05-.92.09-1.38.13-.48.05-.96.1-1.44.15-.46.05-.92.09-1.38.13-.49.05-.98.1-1.47.15-.45.04-.9.09-1.34.13-.2.02-.41.04-.63.07,0,.06-.02.11-.02.15.06.6.13,1.2.19,1.8.06.61.12,1.22.19,1.83.06.62.13,1.24.2,1.86.03.26.05.52.08.78,0,.07.03.14.04.23.08,0,.15,0,.22,0,.21-.02.43-.04.64-.06.6-.05,1.2-.11,1.8-.16.51-.05,1.02-.1,1.53-.15.51-.05,1.02-.08,1.53-.13.51-.05,1.02-.1,1.53-.14.21-.02.43-.04.64-.06.57-.05,1.14-.09,1.71-.14.05,0,.1,0,.13,0,.03.03.04.03.04.04,0,0,.01.02.01.03.02.1.04.2.05.31.27,2.42.54,4.83.81,7.25,0,.04,0,.08,0,.13-.08.08-.18.08-.28.09-.71.06-1.43.12-2.14.18-.71.06-1.43.14-2.14.2-.51.05-1.02.08-1.53.13-.51.05-1.02.1-1.53.14-.3.03-.59.05-.89.08-.37.03-.73.07-1.1.11-.04,0-.08.02-.13.03-.04.18,0,.36.01.53.07.66.14,1.32.21,1.98.07.62.13,1.24.2,1.86.06.61.12,1.22.19,1.83.07.63.13,1.26.2,1.89.04.42.09.85.13,1.27.07.65.14,1.3.21,1.95.06.61.12,1.22.19,1.83.07.63.13,1.26.2,1.89.06.55.11,1.1.17,1.64,0,.04,0,.08-.01.14-.13.02-.26.05-.39.06-.46.05-.92.09-1.38.13-.51.05-1.02.1-1.53.15-.46.04-.92.09-1.38.13-.51.05-1.02.1-1.53.15-.47.05-.94.09-1.41.13-.5.05-1,.1-1.5.15-.24.02-.49.05-.73.07-.08,0-.16,0-.25,0-.02-.07-.04-.13-.05-.19-.1-.9-.19-1.8-.29-2.7-.08-.76-.17-1.53-.26-2.29-.08-.76-.16-1.53-.24-2.29-.06-.59-.13-1.18-.2-1.77-.06-.59-.13-1.18-.19-1.77-.07-.6-.13-1.2-.2-1.8-.06-.59-.13-1.18-.19-1.77-.06-.59-.13-1.18-.19-1.77-.07-.6-.13-1.2-.2-1.8-.07-.62-.14-1.24-.2-1.86-.06-.59-.13-1.18-.19-1.77-.07-.6-.13-1.2-.2-1.8-.06-.59-.13-1.18-.19-1.77-.07-.61-.13-1.22-.2-1.83-.06-.59-.13-1.18-.19-1.77-.07-.61-.13-1.22-.2-1.83-.06-.58-.13-1.16-.19-1.74-.07-.62-.14-1.24-.2-1.86-.06-.59-.13-1.18-.19-1.77-.07-.6-.13-1.2-.2-1.8-.06-.57-.13-1.14-.19-1.7-.05-.46-.1-.93-.15-1.39,0-.06,0-.12,0-.21Z"/>
      <path class="cls-1" d="M103.31,14.97c.02.57.11,1.12.16,1.66.05.54.12,1.07.18,1.61.06.55.12,1.1.18,1.64.06.55.12,1.1.18,1.64.06.54.11,1.07.17,1.61.06.55.12,1.1.17,1.64.06.55.12,1.1.17,1.64.06.54.12,1.07.17,1.61.06.55.12,1.09.18,1.64.06.55.12,1.1.18,1.64.06.55.12,1.1.17,1.64.06.54.11,1.07.17,1.61.06.55.12,1.1.17,1.64.06.55.12,1.1.17,1.64.06.54.12,1.07.17,1.61.06.55.12,1.09.18,1.64.06.55.12,1.1.18,1.64.06.54.12,1.07.17,1.61.06.55.11,1.09.17,1.65-.07.02-.13.05-.19.05-.61.06-1.22.12-1.83.18-.67.07-1.34.14-2.02.2-.48.05-.96.08-1.44.13-.49.05-.98.1-1.47.15-.48.05-.96.09-1.44.13-.49.05-.98.1-1.47.14-.38.04-.75.07-1.13.1-.03,0-.06,0-.11-.02-.02-.09-.05-.17-.06-.26-.06-.59-.12-1.18-.19-1.77-.06-.6-.13-1.2-.2-1.8-.06-.59-.13-1.18-.19-1.77-.07-.62-.13-1.24-.2-1.86-.06-.6-.13-1.2-.19-1.8-.06-.6-.13-1.2-.19-1.8-.07-.61-.13-1.22-.2-1.83-.07-.62-.14-1.24-.2-1.86-.06-.6-.13-1.2-.19-1.8-.07-.61-.13-1.22-.2-1.83-.06-.6-.13-1.2-.19-1.8-.07-.62-.14-1.24-.2-1.86-.06-.59-.12-1.18-.19-1.77-.07-.62-.13-1.24-.2-1.86-.06-.59-.13-1.18-.19-1.77-.07-.63-.14-1.26-.21-1.89-.05-.42-.09-.85-.13-1.27-.02-.14-.04-.29-.06-.45-.65.02-1.28.11-1.91.16-.62.05-1.24.12-1.87.17-.63.06-1.26.11-1.89.17-.09-.12-.09-.25-.1-.37-.12-1.12-.24-2.23-.36-3.35-.12-1.11-.25-2.21-.37-3.32-.09-.86-.19-1.72-.28-2.57,0-.05,0-.1,0-.16.2-.07.41-.07.61-.09.55-.06,1.1-.11,1.65-.16.48-.04.96-.08,1.44-.13.48-.05.96-.1,1.44-.14.45-.04.9-.09,1.35-.13.53-.05,1.06-.1,1.59-.15.48-.05.96-.09,1.44-.13.48-.05.96-.1,1.44-.14.47-.05.94-.09,1.41-.13.51-.05,1.02-.1,1.53-.15.46-.04.92-.09,1.38-.13.52-.05,1.04-.1,1.56-.15.47-.04.94-.09,1.41-.13.49-.05.98-.1,1.47-.14.24-.02.49-.05.73-.07.76-.07,1.53-.15,2.29-.22.59-.06,1.18-.11,1.77-.17.12-.01.24-.02.37,0,.02.05.04.08.05.12.35,3.16.69,6.32,1.03,9.48,0,.04,0,.08-.01.14-.1.02-.2.05-.3.06-.46.05-.92.09-1.38.13-.47.05-.94.1-1.41.14-.47.05-.94.09-1.41.14-.48.05-.96.1-1.44.15-.45.04-.9.09-1.34.13-.23.02-.47.05-.75.07Z"/>
      <path class="cls-1" d="M53.05,48.18c-.08.03-.11.05-.15.06-.44.04-.88.08-1.31.12-.52.05-1.04.1-1.56.15-.47.04-.94.09-1.41.13-.52.05-1.04.1-1.56.15-.23.02-.47.05-.7.07-.52.05-1.04.09-1.56.14-.22.02-.23.02-.29-.21-.17-.58-.33-1.16-.5-1.73-.43-1.51-.87-3.01-1.3-4.52-.03-.1-.06-.2-.09-.28-.03-.02-.03-.03-.04-.03,0,0-.02,0-.03,0-.04,0-.08,0-.12,0-2.38.26-4.76.51-7.14.77-.06,0-.12.02-.2.04-.13.66-.2,1.33-.31,2-.1.67-.19,1.34-.29,2.01-.1.66-.2,1.32-.29,1.97-.1.67-.19,1.34-.29,2-.1.67-.18,1.33-.3,2.01-.12.02-.23.05-.34.06-2.78.26-5.56.53-8.33.79-.1-.1-.06-.19-.04-.28.07-.36.14-.71.21-1.07.23-1.17.46-2.34.69-3.52.23-1.17.46-2.35.68-3.52.25-1.27.5-2.55.75-3.82.25-1.3.51-2.61.76-3.91.23-1.17.45-2.35.68-3.52.27-1.39.54-2.77.81-4.16.25-1.28.5-2.57.75-3.85.22-1.15.45-2.3.67-3.46.23-1.18.46-2.37.69-3.55.24-1.21.47-2.43.71-3.64.01-.06.03-.12.05-.18.05-.01.09-.03.12-.03,3.08-.29,6.16-.58,9.23-.87.02,0,.04.01.07.02.02.03.05.08.06.12,3.74,11.18,7.48,22.35,11.23,33.56ZM37.49,27.75c-.03.11-.06.19-.07.28-.12.74-.23,1.48-.35,2.22-.12.75-.24,1.5-.36,2.25-.12.73-.23,1.46-.35,2.18,0,.06,0,.12,0,.18.06,0,.1.01.14.01,1.25-.14,2.5-.28,3.75-.41,0,0,.02,0,.03-.02,0,0,.01-.02.04-.04-.06-.36-.2-.72-.3-1.09-.1-.38-.22-.76-.33-1.14-.11-.37-.21-.74-.32-1.11-.11-.38-.22-.76-.33-1.14-.11-.37-.21-.74-.32-1.11-.11-.38-.2-.76-.34-1.14-.3,0-.59.06-.9.07Z"/>
      <path class="cls-1" d="M130.72,40.77c-.14.02-.26.05-.38.06-2.18.21-4.36.41-6.54.61-.02,0-.04-.01-.08-.03-.04-.1-.09-.21-.13-.33-.5-1.45-1.01-2.9-1.51-4.35-.04-.12-.09-.23-.13-.35-.1,0-.18-.01-.26,0-1.51.17-3.01.34-4.53.51-.01.08-.03.15-.03.22.02.48.05.96.07,1.43.02.41.04.81.06,1.22.03.71.06,1.41.09,2.12,0,.05-.01.1-.02.16-.23.04-.45.06-.67.09-.52.05-1.04.1-1.56.15-.46.04-.92.09-1.38.13-.52.05-1.04.1-1.56.15-.45.04-.9.09-1.35.13-.08,0-.16,0-.24,0-.09-.09-.06-.2-.06-.3,0-.79,0-1.58.01-2.37,0-2.69.02-5.39.03-8.08,0-2.62.02-5.24.02-7.86,0-1.92,0-3.85.01-5.77,0-.19,0-.37,0-.54.08-.1.18-.1.27-.11.67-.06,1.35-.12,2.02-.18.77-.07,1.55-.15,2.32-.22.67-.07,1.34-.14,2.02-.2.48-.05.96-.08,1.44-.13.48-.05.96-.1,1.44-.15.44-.04.88-.09,1.31-.13.08,0,.16,0,.25,0,.11.07.12.19.16.29.4,1.05.79,2.1,1.18,3.15,2.54,6.78,5.08,13.56,7.63,20.34.04.11.1.21.09.36ZM119.82,30.58c-.04-.3-1.92-6.42-2.04-6.65-.24-.02-.64.02-.89.09,0,.11,0,.22,0,.33.03.87.06,1.74.08,2.62.02.77.04,1.54.06,2.3.01.47.03.93.05,1.4,0,.08.02.16.03.26.91-.11,1.8-.22,2.71-.35Z"/>
      <path class="cls-2" d="M37.49,27.75c.3-.02.59-.07.9-.07.14.38.23.77.34,1.14.11.37.21.74.32,1.11.11.38.22.76.33,1.14.11.37.21.74.32,1.11.11.38.22.76.33,1.14.1.37.23.73.3,1.09-.02.03-.03.04-.04.04,0,0-.02.02-.03.02-1.25.14-2.5.28-3.75.41-.04,0-.08,0-.14-.01,0-.06-.02-.12,0-.18.11-.73.23-1.46.35-2.18.12-.75.24-1.5.36-2.25.12-.74.23-1.48.35-2.22.01-.09.05-.18.07-.28Z"/>
      <path class="cls-2" d="M119.82,30.58c-.91.13-1.8.24-2.71.35-.01-.1-.03-.18-.03-.26-.02-.47-.03-.93-.05-1.4-.02-.77-.04-1.54-.06-2.3-.03-.87-.06-1.74-.08-2.62,0-.11,0-.22,0-.33.25-.07.66-.11.89-.09.12.23,2,6.35,2.04,6.65Z"/>
      <path class="cls-2" d="M117.66,4.34c-.02-.06-.04-.11-.04-.16-.07-.92-.18-1.84-.24-2.77.09-.02.15-.04.22-.05.4-.04.79-.08,1.19-.11.22-.02.43,0,.63.1.24.11.42.29.52.55.12.33.05.63-.17.9-.06.08-.14.15-.21.24.07.12.14.24.21.35.07.12.14.23.21.34.06.11.15.22.19.36-.32.05-.62.09-.94.08-.04-.06-.09-.13-.13-.2-.1-.18-.19-.37-.29-.55-.09-.16-.09-.16-.33-.1-.06.3.08.61.02.93-.28.02-.54.09-.82.07ZM118.33,2.01c0,.21-.03.41.07.6.2.02.37,0,.46-.04.14-.06.21-.19.2-.35-.02-.16-.11-.26-.28-.28-.14-.01-.29-.01-.45.07Z"/>
    </g>
  </g>
</svg>